<mxfile host="app.diagrams.net" modified="2024-03-03T16:53:57.387Z" agent="Mozilla/5.0 (Windows NT 10.0; Win64; x64) AppleWebKit/537.36 (KHTML, like Gecko) Chrome/122.0.0.0 Safari/537.36" version="24.0.1" etag="p9VZx5YEeb2FjHIf4FQw" type="github">
  <diagram name="Halaman-1" id="oQfZFsb4BOvmPV6XB1w-">
    <mxGraphModel>
      <root>
        <mxCell id="0" />
        <mxCell id="1" parent="0" />
      </root>
    </mxGraphModel>
  </diagram>
</mxfile>
